<svg width="43" height="43" viewBox="0 0 43 43" fill="none" xmlns="http://www.w3.org/2000/svg">
<path fill-rule="evenodd" clip-rule="evenodd" d="M43 19.4907V35.2945C43 39.5503 39.7913 43 35.8334 43H33.2055C32.0182 43 31.0555 41.9651 31.0555 40.6883V40.1747C31.0555 38.8979 32.0182 37.863 33.2055 37.863H35.8334C37.1526 37.863 38.2223 36.7132 38.2223 35.2945V19.4907C38.2223 18.6906 37.8755 17.9363 37.2844 17.4503L22.951 5.66526C22.0945 4.96101 20.9055 4.96099 20.049 5.66526L5.71554 17.4503C5.12448 17.9363 4.77777 18.6906 4.77777 19.4907V35.2945C4.77777 36.7132 5.84731 37.863 7.16666 37.863H9.79445C10.9819 37.863 11.9445 38.8979 11.9445 40.1747V40.6883C11.9445 41.9651 10.9819 43 9.79445 43H7.16666C3.20864 43 0 39.5503 0 35.2945V19.4907C0 17.0905 1.04011 14.8276 2.81328 13.3696L17.1466 1.58459C19.7164 -0.52821 23.2839 -0.528187 25.8533 1.58459L40.1867 13.3696C41.9598 14.8276 43 17.0906 43 19.4907ZM21.2611 20.3971H21.7389C25.3012 20.3971 28.1889 23.5019 28.1889 27.3321V35.5513C28.1889 39.3815 25.3012 42.4863 21.7389 42.4863H21.2611C17.6988 42.4863 14.8111 39.3815 14.8111 35.5513V27.3321C14.8111 23.5019 17.6988 20.3971 21.2611 20.3971ZM23.8889 27.3321C23.8889 26.0554 22.9263 25.0205 21.7389 25.0205H21.2611C20.0737 25.0205 19.1111 26.0554 19.1111 27.3321V35.5513C19.1111 36.8281 20.0737 37.863 21.2611 37.863H21.7389C22.9263 37.863 23.8889 36.8281 23.8889 35.5513V27.3321Z" fill="#F1F1F1"/>
</svg>
