<?xml version="1.0" standalone="no"?>
<!DOCTYPE svg PUBLIC "-//W3C//DTD SVG 20010904//EN"
 "http://www.w3.org/TR/2001/REC-SVG-20010904/DTD/svg10.dtd">
<svg version="1.0" xmlns="http://www.w3.org/2000/svg"
 width="128.000000pt" height="128.000000pt" viewBox="0 0 128.000000 128.000000"
 preserveAspectRatio="xMidYMid meet">

<g transform="translate(0.000000,128.000000) scale(0.100000,-0.100000)"
fill="#000000" stroke="none">
<path fill="#ED1F2D" d="M536 1264 c-70 -22 -166 -119 -191 -193 -38 -114 -2 -257 82 -332 69
-60 109 -74 213 -74 108 0 152 17 219 84 63 63 86 122 86 221 0 97 -19 146
-84 213 -79 84 -212 117 -325 81z"/>
<path d="M468 525 c-209 -51 -385 -201 -444 -378 -20 -59 -7 -99 40 -128 29
-18 60 -19 576 -19 524 0 546 1 577 20 36 22 48 54 40 107 -15 87 -122 242
-159 228 -27 -11 -31 -37 -8 -65 42 -51 81 -116 92 -152 22 -73 59 -68 -540
-68 -471 0 -541 2 -552 15 -11 13 -7 28 24 90 61 123 165 212 307 262 58 21
99 27 189 31 131 5 202 -9 309 -59 72 -33 101 -31 101 7 0 22 -11 30 -76 60
-42 20 -106 42 -142 50 -84 17 -259 17 -334 -1z"/>
</g>
</svg>
