<svg xmlns="http://www.w3.org/2000/svg" xml:space="preserve" style="fill-rule:evenodd;clip-rule:evenodd;stroke-linejoin:round;stroke-miterlimit:2" viewBox="0 0 168 113">
  <path d="M36.43 85.28 29.97 85.28C27.73 85.28 25.83 86.75 25.18 88.78 25.09 89.06 25.31 89.35 25.6 89.35L26.75 89.35C27.05 89.35 27.21 89.25 27.28 89.1 27.74 88.07 28.77 87.35 29.97 87.35L36.43 87.35C38.07 87.35 39.39 88.68 39.39 90.31L39.39 91.43C39.39 93.07 38.06 94.39 36.43 94.39L33.04 94.39C32.46 94.39 31.99 94.86 31.99 95.44 31.99 96.02 32.46 96.49 33.04 96.49L36.43 96.49C38.07 96.49 39.39 97.82 39.39 99.45L39.39 100.57C39.39 102.21 38.06 103.53 36.43 103.53L29.97 103.53C28.77 103.53 27.74 102.81 27.28 101.78 27.21 101.62 27.05 101.53 26.88 101.53L25.61 101.53C25.3 101.53 25.1 101.83 25.19 102.12 25.84 104.14 27.74 105.6 29.97 105.6L36.43 105.6C39.2 105.6 41.45 103.35 41.45 100.58L41.45 99.46C41.45 97.82 40.66 96.37 39.44 95.45 40.66 94.53 41.45 93.08 41.45 91.44L41.45 90.3C41.46 87.52 39.21 85.28 36.43 85.28ZM96.17 91.04 89.26 91.04C86.3 91.04 83.89 93.45 83.89 96.41L83.89 100.15C83.89 103.11 86.3 105.52 89.26 105.52L96.17 105.52C99.13 105.52 101.54 103.11 101.54 100.15L101.54 96.41C101.55 93.45 99.14 91.04 96.17 91.04ZM99.34 100.15C99.34 101.9 97.92 103.32 96.17 103.32L89.26 103.32C87.51 103.32 86.09 101.9 86.09 100.15L86.09 96.41C86.09 94.66 87.51 93.24 89.26 93.24L96.17 93.24C97.92 93.24 99.34 94.66 99.34 96.41L99.34 100.15ZM141.29 99.38C141.54 99.38 141.74 99.18 141.74 98.93L141.74 96.4C141.74 93.43 139.33 91.03 136.37 91.03L129.46 91.03C126.49 91.03 124.09 93.44 124.09 96.4L124.09 100.14C124.09 103.11 126.5 105.51 129.46 105.51L136.37 105.51C139.17 105.51 141.48 103.35 141.72 100.61 141.74 100.36 141.52 100.14 141.27 100.14L139.95 100.14C139.72 100.14 139.54 100.32 139.51 100.55 139.31 102.1 137.98 103.31 136.37 103.31L129.46 103.31C127.71 103.31 126.29 101.89 126.29 100.14L126.29 99.38 141.29 99.38ZM126.28 96.41C126.28 94.66 127.7 93.24 129.45 93.24L136.36 93.24C138.11 93.24 139.53 94.66 139.53 96.41L139.53 97.17 126.29 97.17 126.29 96.41 126.28 96.41ZM81.28 91.04 70.55 91.04C67.58 91.04 65.18 93.45 65.18 96.41L65.18 100.15C65.18 103.12 67.59 105.52 70.55 105.52L81.28 105.52C81.53 105.52 81.73 105.32 81.73 105.07L81.73 103.75C81.73 103.5 81.53 103.31 81.28 103.31L70.55 103.31C68.8 103.31 67.38 101.89 67.38 100.14L67.38 96.4C67.38 94.65 68.8 93.23 70.55 93.23L81.28 93.23C81.53 93.23 81.73 93.03 81.73 92.78L81.73 91.46C81.73 91.24 81.53 91.04 81.28 91.04ZM121.19 84.78 119.87 84.78C119.62 84.78 119.42 84.98 119.42 85.22L119.42 91.03 109.34 91.03C106.37 91.03 103.97 93.44 103.97 96.4L103.97 100.14C103.97 103.11 106.38 105.51 109.34 105.51L116.25 105.51C119.22 105.51 121.62 103.1 121.62 100.14L121.62 85.22C121.64 84.98 121.44 84.78 121.19 84.78ZM119.43 100.15C119.43 101.9 118.01 103.32 116.26 103.32L109.35 103.32C107.6 103.32 106.18 101.9 106.18 100.15L106.18 96.41C106.18 94.66 107.6 93.24 109.35 93.24L119.43 93.24 119.43 100.15ZM61.45 103.44C62.16 102.53 62.6 101.4 62.6 100.15L62.6 90.65C62.6 87.69 60.19 85.28 57.23 85.28L48.99 85.28C46.03 85.28 43.62 87.69 43.62 90.65L43.62 100.15C43.62 103.11 46.03 105.52 48.99 105.52L57.23 105.52C58.15 105.52 59 105.27 59.76 104.86L62.97 108.07C63.2 108.3 63.58 108.3 63.81 108.07L64.53 107.35C64.76 107.12 64.76 106.74 64.53 106.51L61.45 103.44ZM48.99 103.32C47.24 103.32 45.82 101.9 45.82 100.15L45.82 90.65C45.82 88.9 47.24 87.48 48.99 87.48L57.23 87.48C58.98 87.48 60.4 88.9 60.4 90.65L60.4 100.15C60.4 101.9 58.98 103.32 57.23 103.32L48.99 103.32ZM103.77 15.81C103.76 15.82 103.75 15.83 103.74 15.84 103.76 15.83 103.77 15.82 103.77 15.81M113.42 22.15C117.27 18.83 122.28 16.83 127.76 16.83 135.09 16.83 141.57 20.43 145.57 25.95 145.58 25.97 145.6 25.99 145.61 26 146.01 26.56 146.39 27.14 146.74 27.75 146.77 27.8 146.8 27.85 146.83 27.9 147.15 28.46 147.45 29.04 147.72 29.64 147.76 29.73 147.81 29.83 147.86 29.92 148.1 30.47 148.32 31.04 148.52 31.62 148.57 31.76 148.63 31.9 148.67 32.04 148.85 32.58 148.99 33.14 149.12 33.7 149.16 33.88 149.22 34.06 149.26 34.24 149.38 34.8 149.46 35.36 149.53 35.93 149.56 36.12 149.6 36.31 149.62 36.5 149.7 37.26 149.74 38.03 149.74 38.82 149.74 38.88 149.73 38.94 149.73 39 149.73 39.13 149.75 39.26 149.75 39.39 149.77 40.24 149.85 41.1 149.97 41.96 149.98 42.06 150 42.16 150.02 42.26 150.14 43.08 150.3 43.9 150.52 44.72 150.53 44.76 150.54 44.81 150.55 44.85 151.03 46.66 151.73 48.5 152.69 50.33 153.06 51.03 153.48 51.7 153.94 52.34 154.09 52.56 154.26 52.75 154.42 52.96 154.78 53.42 155.15 53.86 155.55 54.28 155.72 54.46 155.89 54.63 156.06 54.8 156.22 54.95 156.4 55.09 156.56 55.24 156.77 54.99 157.09 54.35 157.23 54.07 163.7 41.57 161.7 25.81 151.21 15.32 139.36 3.47 120.8 2.46 107.79 12.25 109.33 14.16 111.8 17.67 113.42 22.15M156.84 68.68 150.23 57.47C148.67 54.83 145.28 53.96 142.64 55.51L138.89 57.72C138.17 58.15 137.42 58.56 136.65 58.9 130.7 61.55 123.37 61.65 115.97 57.66 112.88 56 110.34 53.42 108.72 50.31 106.65 46.33 105.74 42.35 105.78 38.59L105.69 38.12C105.67 37.57 105.64 37.02 105.58 36.47 105.56 36.28 105.52 36.09 105.49 35.9 105.42 35.33 105.33 34.76 105.22 34.21 105.18 34.03 105.12 33.85 105.08 33.67 104.95 33.11 104.8 32.55 104.63 32.01 104.58 31.87 104.52 31.73 104.48 31.59 104.28 31.01 104.07 30.45 103.82 29.89 103.78 29.79 103.73 29.7 103.68 29.61 103.41 29.02 103.11 28.44 102.79 27.87 102.76 27.82 102.73 27.77 102.7 27.72 102.35 27.12 101.97 26.54 101.57 25.97 101.56 25.95 101.54 25.93 101.53 25.92 100.68 24.74 99.71 23.66 98.65 22.67 97.82 24.1 97.06 25.62 96.39 27.23 93.28 34.72 93.36 43.24 96.54 50.7 97.04 51.87 97.59 52.99 98.17 54.06 101.53 52.19 105.78 53.5 107.49 56.96L113.26 68.65C122.48 73.1 133.34 73.03 142.53 68.45 143.11 68.16 143.81 68.35 144.14 68.91L147.16 74.02C148.68 76.6 151.99 77.78 154.65 76.39 157.46 74.94 158.44 71.4 156.84 68.68Z" style="fill:#fff;fill-rule:nonzero"/>
  <path d="M102.79 27.9C103.11 28.46 103.41 29.04 103.68 29.64 103.72 29.73 103.77 29.83 103.82 29.92 104.06 30.47 104.28 31.04 104.48 31.62 104.53 31.76 104.59 31.9 104.63 32.04 104.81 32.58 104.95 33.14 105.08 33.7 105.12 33.88 105.18 34.06 105.22 34.24 105.34 34.8 105.42 35.36 105.49 35.93 105.52 36.12 105.56 36.31 105.58 36.5 105.64 37.04 105.67 37.59 105.69 38.15L105.78 38.66 105.78 38.64C106.17 41.67 107.77 50.02 113.62 53.23 119.58 40.87 117.44 25.58 107.18 15.33 95.34 3.49 76.8 2.47 63.79 12.24 65.32 14.15 67.78 17.65 69.39 22.13 73.24 18.83 78.24 16.83 83.71 16.83 91.04 16.83 97.52 20.43 101.52 25.95 101.53 25.97 101.55 25.99 101.56 26 101.96 26.56 102.34 27.14 102.69 27.75 102.72 27.8 102.76 27.85 102.79 27.9M112.79 68.68 106.18 57.47C104.62 54.83 101.23 53.96 98.59 55.51L94.84 57.72C94.12 58.15 93.37 58.56 92.6 58.9 86.65 61.55 79.32 61.65 71.92 57.66 68.83 56 66.29 53.42 64.67 50.31 62.78 46.69 61.86 43.06 61.74 39.61 61.68 39.24 61.63 38.9 61.59 38.62 61.58 37.9 61.54 37.18 61.47 36.48 61.45 36.29 61.41 36.1 61.38 35.91 61.3 35.34 61.22 34.77 61.11 34.22 61.07 34.04 61.02 33.86 60.97 33.68 60.84 33.12 60.69 32.56 60.52 32.02 60.47 31.88 60.42 31.74 60.37 31.6 60.17 31.02 59.95 30.46 59.71 29.9 59.67 29.8 59.62 29.71 59.57 29.62 59.3 29.03 59 28.45 58.68 27.88 58.65 27.83 58.62 27.78 58.59 27.73 58.24 27.13 57.86 26.55 57.46 25.98 57.45 25.96 57.43 25.94 57.42 25.93 56.58 24.77 55.62 23.69 54.57 22.72 53.75 24.14 53 25.65 52.33 27.25 49.22 34.74 49.3 43.26 52.48 50.71 52.99 51.9 53.55 53.04 54.14 54.14 57.51 52.17 61.85 53.47 63.58 56.98L69.4 68.78C78.58 73.13 89.34 73.02 98.47 68.47 99.05 68.18 99.75 68.37 100.08 68.93L103.1 74.04C104.62 76.62 107.93 77.8 110.59 76.41 113.42 74.94 114.4 71.4 112.79 68.68M61.6 38.99 61.6 38.83C61.6 38.96 61.61 39.09 61.61 39.22 61.61 39.14 61.6 39.07 61.6 38.99" style="fill:#fff;fill-rule:nonzero"/>
  <path d="M62.08,57.47C60.52,54.83 57.13,53.96 54.49,55.51L50.74,57.72C50.02,58.15 49.27,58.56 48.5,58.9C42.55,61.55 35.22,61.65 27.82,57.66C24.73,56 22.19,53.42 20.57,50.31C11.84,33.56 23.77,16.81 39.61,16.81C46.94,16.81 53.42,20.41 57.42,25.93C57.43,25.95 57.45,25.97 57.46,25.98C57.86,26.54 58.24,27.12 58.59,27.73C58.62,27.78 58.65,27.83 58.68,27.88C59,28.44 59.3,29.02 59.57,29.62C59.61,29.71 59.66,29.81 59.71,29.9C59.95,30.45 60.17,31.02 60.37,31.6C60.42,31.74 60.48,31.88 60.52,32.02C60.7,32.56 60.84,33.12 60.97,33.68C61.01,33.86 61.07,34.04 61.11,34.22C61.23,34.78 61.31,35.34 61.38,35.91C61.41,36.1 61.45,36.29 61.47,36.48C61.54,37.18 61.58,37.9 61.59,38.62C61.98,41.66 63.58,50 69.43,53.21C69.45,53.22 69.47,53.23 69.49,53.24C75.47,40.87 73.33,25.57 63.07,15.3C46.92,-0.84 18.24,3.14 8.24,27.26C5.13,34.75 5.21,43.27 8.39,50.72C16.89,70.66 38.21,76.53 54.37,68.47C54.95,68.18 55.65,68.37 55.98,68.93L59,74.04C60.52,76.62 63.83,77.8 66.49,76.41C69.33,74.93 70.31,71.4 68.71,68.68L62.08,57.47Z" style="fill:#fff;fill-rule:nonzero"/>
  <path d="M61.6,38.99C61.6,39.07 61.61,39.14 61.61,39.22C61.61,39.09 61.6,38.96 61.6,38.83L61.6,38.99Z" style="fill:#fff;fill-rule:nonzero"/>
</svg>
